<?xml version="1.0" encoding="UTF-8"?><svg id="Layer_1" xmlns="http://www.w3.org/2000/svg" xmlns:xlink="http://www.w3.org/1999/xlink" viewBox="0 0 120.81 120.78"><defs><style>.cls-1{clip-path:url(#clippath);}.cls-2{fill:none;}.cls-2,.cls-3,.cls-4{stroke-width:0px;}.cls-3{fill:#c65242;}.cls-4{fill:#fff;}</style><clipPath id="clippath"><rect class="cls-2" x="-709.73" y="656.07" width="324.98" height="440.9"/></clipPath></defs><path class="cls-4" d="M60.42,13.74c-19.48,0-25.18.02-26.29.11-4,.33-6.49.96-9.2,2.31-2.09,1.04-3.74,2.24-5.36,3.92-2.96,3.07-4.76,6.85-5.4,11.35-.32,2.18-.41,2.63-.43,13.77,0,3.72,0,8.6,0,15.16,0,19.47.02,25.16.11,26.26.32,3.89.93,6.34,2.23,9.01,2.47,5.12,7.18,8.97,12.74,10.41,1.92.5,4.05.77,6.78.9,1.16.05,12.93.09,24.72.09s23.57-.01,24.7-.07c3.16-.15,4.99-.39,7.02-.92,5.59-1.44,10.22-5.23,12.74-10.43,1.27-2.61,1.91-5.15,2.2-8.84.06-.8.09-13.62.09-26.42s-.03-25.6-.09-26.4c-.29-3.75-.94-6.27-2.24-8.93-1.07-2.18-2.26-3.81-3.99-5.47-3.09-2.95-6.86-4.74-11.36-5.39-2.18-.32-2.61-.41-13.77-.43h-15.19Z"/><path class="cls-3" d="M60.4,25.94c-9.36,0-10.53.04-14.21.21-3.67.17-6.17.75-8.36,1.6-2.27.88-4.19,2.06-6.1,3.97-1.92,1.91-3.09,3.84-3.98,6.1-.85,2.19-1.44,4.7-1.6,8.36-.16,3.67-.21,4.85-.21,14.21s.04,10.53.21,14.2c.17,3.67.75,6.17,1.6,8.36.88,2.27,2.06,4.19,3.97,6.1,1.91,1.92,3.84,3.1,6.1,3.98,2.19.85,4.7,1.43,8.36,1.6,3.67.17,4.85.21,14.2.21s10.53-.04,14.2-.21c3.67-.17,6.17-.75,8.37-1.6,2.27-.88,4.18-2.06,6.1-3.98,1.92-1.91,3.09-3.84,3.98-6.1.85-2.19,1.43-4.7,1.6-8.36.17-3.67.21-4.85.21-14.2s-.04-10.53-.21-14.21c-.17-3.67-.75-6.17-1.6-8.36-.88-2.27-2.06-4.19-3.98-6.1-1.92-1.92-3.83-3.09-6.1-3.97-2.2-.85-4.7-1.43-8.37-1.6-3.67-.17-4.84-.21-14.2-.21h.01ZM57.31,32.15c.92,0,1.94,0,3.09,0,9.2,0,10.29.03,13.92.2,3.36.15,5.18.71,6.4,1.19,1.61.62,2.75,1.37,3.96,2.58,1.21,1.21,1.95,2.35,2.58,3.96.47,1.21,1.03,3.04,1.19,6.4.17,3.63.2,4.72.2,13.92s-.04,10.29-.2,13.92c-.15,3.36-.71,5.18-1.19,6.4-.62,1.61-1.37,2.75-2.58,3.96-1.21,1.21-2.35,1.95-3.96,2.58-1.21.47-3.04,1.03-6.4,1.19-3.63.17-4.72.2-13.92.2s-10.29-.04-13.92-.2c-3.36-.16-5.18-.72-6.4-1.19-1.61-.62-2.76-1.37-3.96-2.58-1.21-1.21-1.95-2.35-2.58-3.96-.47-1.21-1.03-3.04-1.19-6.4-.17-3.63-.2-4.72-.2-13.92s.03-10.29.2-13.92c.15-3.36.71-5.18,1.19-6.4.62-1.61,1.37-2.76,2.58-3.96,1.21-1.21,2.35-1.95,3.96-2.58,1.21-.47,3.04-1.03,6.4-1.19,3.18-.14,4.41-.19,10.83-.19h0ZM78.79,37.87c-2.28,0-4.13,1.85-4.13,4.13s1.85,4.13,4.13,4.13,4.13-1.85,4.13-4.13-1.85-4.13-4.13-4.13h0ZM60.4,42.7c-9.77,0-17.69,7.92-17.69,17.69s7.92,17.69,17.69,17.69c9.77,0,17.69-7.92,17.69-17.69s-7.92-17.69-17.69-17.69h0ZM60.4,48.91c6.34,0,11.48,5.14,11.48,11.48s-5.14,11.48-11.48,11.48-11.48-5.14-11.48-11.48,5.14-11.48,11.48-11.48Z"/><g class="cls-1"><image width="2048" height="2732" transform="translate(-768.01 -242.2) scale(.55)" xlink:href="Untitled_Artwork 3.png"/></g></svg>