<?xml version="1.0" encoding="UTF-8"?><svg id="Layer_1" xmlns="http://www.w3.org/2000/svg" xmlns:xlink="http://www.w3.org/1999/xlink" viewBox="0 0 322.95 368.46"><defs><style>.cls-1{fill:#010101;}.cls-1,.cls-2,.cls-3,.cls-4{stroke-width:0px;}.cls-5{clip-path:url(#clippath);}.cls-2{fill:none;}.cls-3{fill:#c65242;}.cls-4{fill:#f6df71;}.cls-6{clip-path:url(#clippath-1);}</style><clipPath id="clippath"><rect class="cls-2" x="738.24" y="543.81" width="434.58" height="224.29"/></clipPath><clipPath id="clippath-1"><rect class="cls-2" x="-666.78" y="1237.71" width="324.98" height="440.9"/></clipPath><image id="image" width="2048" height="2732" xlink:href="Untitled_Artwork 3.png"/></defs><g class="cls-5"><use transform="translate(233.89 -215.02) scale(.55)" xlink:href="#image"/></g><path class="cls-4" d="M227.71,226.64c.01,15,.02,30,0,44.99,0,9.08-5.53,14.61-14.63,14.54-5.39-.05-10.82.04-16.16-.55-5.66-.63-9.92-5.65-9.96-11.29-.1-15.69-.03-31.39-.03-47.08,0-15.6-.07-31.21.03-46.82.04-5.72,4.51-10.91,10.2-11.37,6.15-.5,12.38-.61,18.53-.22,7.18.45,11.87,5.89,12,13.24.12,6.71.07,13.43,0,20.14-.05,4.27-2.34,6.1-7.26,6.02-3.74-.05-5.73-2.15-5.74-6.14-.01-6.71,0-13.43,0-20.14-.01-3.52-1.97-5.44-5.44-5.58-8.31-.33-9.89.64-9.83,9.65.18,28.6.07,57.2.07,85.8,0,4.85,1.71,6.55,6.58,6.56.96,0,1.91,0,2.88,0,3.84-.04,5.73-1.93,5.74-5.79,0-15.34,0-30.69,0-46.04,0-4.71,1.89-6.77,6.25-6.78,4.73-.01,6.77,2.03,6.77,6.86Z"/><path class="cls-4" d="M195.79,127.22c0,6.1.01,12.2-.01,18.31-.03,4.59-2.22,6.77-6.7,6.71-4.25-.05-6.3-2.25-6.3-6.81V48.65c0-4.59-1.69-6.15-6.25-6.32-6.59-.25-9.07.36-9.03,8.93.18,31.39.07,62.78.07,94.18,0,5.58-4.02,8.31-9.27,6.36-2.01-.74-3.18-2.07-3.37-4.18-.14-1.64-.21-3.3-.21-4.95,0-33.4,0-66.79.01-100.19,0-2.94-.21-6.09,3.39-7.41,3.83-1.4,6.71-.46,9.64,3.19,1.32-3.22,3.97-3.78,7.01-3.69,2.96.1,5.96-.21,8.89.11,7.62.85,12.12,6.25,12.13,14.33.03,26.08.01,52.15.01,78.22Z"/><path class="cls-4" d="M303.54,144.05c-6.92,6.84-15.09,9.29-24.5,7.57-5.1-.94-9.3-6.45-9.38-11.79-.08-5.23-.05-10.46-.01-15.69.02-2.94,2.21-5.12,5.26-5.35,4.21-.33,6.68,1.05,7.29,4.17.23,1.19.3,2.42.31,3.63.03,5.83.01,11.66.01,17.44,6.6,1.51,13.8-3.11,14.82-9.57,1.24-7.85.76-15.25-3.78-22.44-7.21-11.43-13.64-23.35-20.36-35.08-6.56-11.47-4.86-30.11,8.19-38.19,6.04-3.74,12.57-4.94,19.49-3.63,5.39,1.03,9.52,6.32,9.57,11.83.04,5.05.02,10.11,0,15.17,0,3.95-2.06,5.85-6.25,5.86-4.37,0-6.3-1.73-6.31-5.72-.01-6.52,0-13.04,0-19.68-7.42-1.33-15.34,3.91-15.5,13.45-.13,7.74,1.38,14.54,5.56,21.17,6.56,10.41,12.33,21.32,18.68,31.87,5.79,9.61,5.46,26.56-3.07,34.99Z"/><path class="cls-4" d="M284.84,258.1c-.05-3.67-2.2-5.4-6.47-5.35-3.87.05-6.09,2.04-6.1,5.53-.02,4.71.02,9.42-.01,14.13-.02,3.91-2.07,5.97-5.91,5.98-1.57,0-3.15.07-4.71-.01-2.33-.14-4.51-2.06-4.53-4.25-.07-10.35-.03-20.72-.03-31.44,4.79,0,9.23-.03,13.67,0,9.57.07,14.39-6.81,14.22-14.31-.35-15.77-.07-31.56-.14-47.35-.03-6.31-4.45-11.46-10.71-12.06-5.1-.49-10.26-.34-15.41-.36-9.5-.03-14.67,5.18-14.68,14.66v41.07c0,15.96-.03,31.91.01,47.87.02,7.49,3.88,12.67,11.26,13.56,6.08.74,12.33.42,18.49.12,5.92-.29,11.57-6.09,11.14-13.4-.29-4.78-.01-9.59-.08-14.39ZM257.01,227.86c.28-6.61.05-13.25.05-19.87,0-8.1.03-16.2-.01-24.31-.01-2.53,1.12-4.42,3.51-4.76,2.68-.38,5.53-.42,8.18.08,2.44.46,3.5,2.66,3.51,5.14.02,15.77.03,31.55-.01,47.31-.01,3.46-2.12,5.49-5.56,5.57-7.03.17-10.09.57-9.67-9.17Z"/><path class="cls-4" d="M252.99,138.1c-.27-4.6-.02-9.23-.07-13.85-.04-3.74-2.1-5.48-6.28-5.47-4.1.01-6.26,1.89-6.29,5.56-.04,3.48-.14,6.97.01,10.46.42,9.08-1.82,10-9.87,9.63-.35-.02-.72.07-1.04-.03-2.25-.59-4.23-1.73-4.26-4.26-.11-10.35-.05-20.72-.05-31.79,5.89,0,11.47.25,17.01-.07,5.9-.35,10.73-5.78,10.75-11.73.05-16.47.05-32.95,0-49.42-.02-6.33-4.32-11.55-10.62-12.1-6.05-.53-12.2-.64-18.25-.18-7.44.57-11.7,5.72-11.89,13.31-.07,2.53-.01,5.05-.01,7.58,0,27.63,0,55.26,0,82.9,0,6.96,4.08,12.26,10.88,13.04,5.85.66,11.83.82,17.71.4,8.49-.61,12.66-7.07,12.26-13.98ZM225.14,73.6v-23.24c0-4.02,1.83-5.74,5.88-5.93,6.93-.32,9.57.81,9.4,9.21-.29,14.27-.08,28.56-.08,42.83,0,4.81-1.78,6.59-6.56,6.6-.87,0-1.74,0-2.61,0-4.32-.02-6.02-1.71-6.02-5.97,0-7.83,0-15.68,0-23.51Z"/><path class="cls-4" d="M170.17,181.63c0-6.69-4.47-12.12-11.08-12.67-5.97-.49-12.04-.58-18.01-.11-7.58.6-11.71,5.68-11.71,13.28,0,6.89-.01,13.78,0,20.67.01,3.66,2,5.43,6.04,5.44,4.5.01,6.49-1.64,6.51-5.5.03-5.67.01-11.34.01-17,0-8.59,1.05-9.61,9.63-9.41,3.8.09,5.59,1.83,5.61,5.61.04,6.02.01,12.03.01,18.05v9.62c-2.25.27-4.22.54-6.19.74-11.28,1.14-21.6,12.44-21.62,23.75-.02,13.17-.01,26.34,0,39.5,0,5.89,4.08,11.09,9.89,12.02,3.58.57,7.27.37,10.91.58,3.21.18,5.82-.67,7.14-3.97,1.88,3.4,4.73,4.69,8.34,3.86,2.89-.66,4.51-2.81,4.51-6.11,0-32.78.02-65.57,0-98.36ZM157.19,272.1c-.02,4.66-1.65,6.28-6.23,6.29-7.98.02-9.02-1.02-9.02-8.94,0-14.22,0-28.43,0-42.64,0-5.11,1.95-7.04,7.09-7.04.87,0,1.75-.03,2.62,0,3.56.13,5.48,1.98,5.51,5.5.05,7.93.01,15.87.01,23.81h.02c0,7.67.02,15.35,0,23.02Z"/><path class="cls-4" d="M138.24,47.39c0-6.4-4.45-11.86-10.78-12.34-6.65-.5-13.4-.4-20.06.1-5.19.39-9.8,5.81-9.89,10.89-.14,7.76-.12,15.52.03,23.28.02,1.24.69,2.85,1.62,3.62,2.31,1.94,5.14,1.77,7.87.83,2.68-.94,3.09-3.17,3.07-5.69-.06-6.54-.05-13.08,0-19.61.02-4.01,2.14-6.08,6.11-6.1.96,0,1.92,0,2.88,0,4.47,0,6.32,1.78,6.35,6.29.05,8.45.03,16.91.01,25.37,0,.58-.15,1.15-.22,1.63-2.16.26-4.13.49-6.11.74-11.81,1.46-21.56,12.33-21.62,24.27-.07,13.08-.05,26.15,0,39.22.01,5.78,4.39,11.01,10.14,11.79,3.69.5,7.45.41,11.18.56,2.94.12,5.29-.85,6.62-4.05.36.67.58,1.15.87,1.57,1.45,2.17,4.76,3.13,7.74,2.25,2.75-.8,4.23-2.61,4.23-5.51.02-33.04.03-66.08-.01-99.11ZM125.42,115.1c0,7.5-.12,15,.05,22.49.1,4.81-2.5,7.4-6.94,6.84-.86-.1-1.74,0-2.61,0-3.54-.03-5.8-2-5.82-5.57-.08-15.77-.08-31.55,0-47.33.01-3.58,2.38-5.58,6.01-5.74,8.79-.4,9.52,2.19,9.35,9.2-.16,6.71-.03,13.42-.03,20.13Z"/><path class="cls-4" d="M65.92,168.92c-3.51-.49-7.12-.22-10.69-.35-2.85-.1-5.01.93-6.23,3.64-2.75-3.56-5.45-4.49-9.27-3.28-3.88,1.22-3.57,4.42-3.58,7.47v.26c0,31.21.01,62.42.02,93.63v2.89h-5.62c-1.83,0-3.67-.07-5.5.01-3.68.16-5.37,2.49-5.67,6.64-.24,3.39,2.41,6.38,5.69,6.38,1.83,0,3.66,0,5.49,0h18.18v-31.6c2.9-.35,5.43-.44,7.87-.99,12.18-2.71,20.39-13.03,20.4-25.48,0-15.34,0-30.69,0-46.03,0-7.04-4.18-12.2-11.1-13.17ZM48.79,246.27v-63.11c0-5.03,1.84-6.83,6.94-6.84.7,0,1.39,0,2.09,0,4.62.02,6.22,1.61,6.23,6.31.02,9.5,0,19,0,28.5,0,7.24-.31,14.48.08,21.7.44,8.13-6.79,14.86-15.34,13.42Z"/><path class="cls-4" d="M35.38,36.56c-6.62-2.62-13.51-2.11-20.35-1.69-2.94.18-4.44,2.36-4.44,5.41-.01,14.39,0,28.78,0,43.16v3.08c-5.46,1.24-6.44,2.54-6.28,8.08.09,3.25,1.79,4.79,6.28,5.5v45.96c0,3.95,2.07,6.17,6.04,6.15,4.17-.02,8.36-.1,12.51-.49,12.24-1.13,22.25-12.21,22.25-24.47,0-22.41,0-44.83,0-67.23,0-10.32-6.4-19.65-16-23.46ZM38.73,131.06c-.1,8.43-6.51,14.06-15.12,13.14v-44c4.77-1.18,6.26-2.78,6.29-6.69.03-4.11-1.42-5.74-6.29-6.97v-43.82c7.96-1.82,15.09,4.4,15.11,13.25.05,18.75.01,37.5.01,56.25,0,6.28.07,12.56,0,18.83Z"/><path class="cls-4" d="M117.31,279.53c.01,4.08-2.04,6.58-5.72,6.62-2.68.03-5.41-.05-8.04-.5-5.4-.91-9.57-5.84-9.85-11.25-.03-.52-.03-1.04-.03-1.56,0-32.6,0-65.2,0-97.8,0-4.87,1.74-6.51,6.63-6.47,3.97.05,6.02,2.12,6.02,6.17,0,31.64,0,63.27,0,94.92v3.51c1.95,0,3.59-.05,5.22,0,3.59.13,5.74,2.53,5.75,6.36Z"/><path class="cls-4" d="M80.69,55.24c-.04,2.93-2.02,4.83-4.91,4.94-.96.03-1.92.05-2.88,0-2.79-.13-4.69-2.04-4.74-4.81-.05-2.7-.01-5.41-.01-8.11,0-2.53-.03-5.06,0-7.59.06-3.23,2.2-5.05,5.93-5.1,4.18-.06,6.53,1.62,6.6,4.97.1,5.23.08,10.47.01,15.69Z"/><path class="cls-4" d="M80.71,69.81c.01,25.54.01,51.08,0,76.63,0,3.89-2.16,5.76-6.34,5.83-3.73.05-6.36-2.32-6.3-5.91.2-12.82.08-25.63.08-38.44s.14-25.46-.09-38.18c-.07-3.32,2.57-5.93,6.39-5.88,4,.06,6.26,2.14,6.26,5.96Z"/><path class="cls-4" d="M275.24,20.64c-1.22,5.61-5.67,8.52-11.85,8.86,0-7.12-.14-14.23.08-21.33.07-2.19,1.78-3.73,4.14-3.97,1.37-.14,2.99-.46,4.12.09,1.56.76,3.83,2.17,3.94,3.46.35,4.27.48,8.74-.43,12.89Z"/><path class="cls-3" d="M210.62,180.89c-.55-.2-.71-.3-.87-.31q-6.06-.4-6.06,5.64c0,28.34,0,56.68,0,85.02,0,.86,0,1.71,0,2.76h6.93v-3.11c0-14.39-.04-28.77.03-43.16.01-3,.07-6.08,2.27-8.58,2.86-3.24,8.16-4.47,12.7-2.87,3.76,1.33,6.01,4.78,6.04,9.68.06,10.03.04,20.06,0,30.08-.02,6.36.05,12.73-.26,19.08-.39,7.94-7.39,14.56-15.44,14.76-6.17.15-12.36.17-18.53-.01-7.33-.21-14.64-7.84-14.65-15.41-.07-31.39-.07-62.78,0-94.17.02-7.89,7.13-15.17,15.35-15.59,6-.31,12.03-.33,18.03-.02,8.4.43,14.83,6.79,15.26,15.23.39,7.65.26,15.34.22,23-.04,7.32-6.54,10.31-12.26,9.4-6.07-.98-8.69-4.55-8.75-11.52-.05-5.84-.02-11.68-.03-17.53,0-.77,0-1.55,0-2.36ZM186.96,227.26c0,15.69-.06,31.39.03,47.08.03,5.64,4.3,10.66,9.96,11.29,5.34.59,10.76.51,16.15.55,9.1.07,14.63-5.47,14.63-14.54.02-15,0-30,0-44.99,0-4.83-2.04-6.87-6.77-6.86-4.37.01-6.25,2.06-6.25,6.78,0,15.35,0,30.69,0,46.04,0,3.86-1.9,5.75-5.74,5.79-.96.01-1.92,0-2.88,0-4.87,0-6.58-1.71-6.58-6.55,0-28.6.11-57.2-.07-85.8-.06-9.01,1.52-9.98,9.83-9.65,3.46.14,5.42,2.07,5.43,5.58.02,6.71,0,13.43,0,20.14,0,3.99,1.99,6.09,5.74,6.14,4.92.07,7.21-1.76,7.26-6.03.07-6.71.11-13.43,0-20.14-.13-7.34-4.82-12.79-12-13.24-6.15-.39-12.38-.27-18.53.22-5.7.46-10.16,5.65-10.2,11.37-.1,15.61-.03,31.21-.03,46.82Z"/><path class="cls-3" d="M178.63,46.69h-6.87c0,1.14,0,2.16,0,3.18,0,32.08,0,64.16,0,96.25,0,4.85-3.2,9.09-7.31,9.8-6.75,1.16-11.45-1.04-13.19-6.3-.34-1.04-.39-2.21-.4-3.32-.03-34.96.07-69.92-.1-104.88-.05-9.62,7.1-11.96,14.78-10.26,1.32.29,2.76.09,4.14.01,1.72-.09,3.45-.46,5.16-.41,4.24.11,8.61-.2,12.7.71,7.25,1.61,12.01,7.93,12.03,15.36.07,33.48.06,66.95.02,100.43,0,5-3.5,8.43-8.48,8.7-3.15.17-6.26.28-8.91-1.93-2.9-2.41-3.52-5.73-3.53-9.16-.04-32.17-.02-64.34-.01-96.51,0-.5,0-1,0-1.67ZM167.78,38.25c-2.93-3.65-5.82-4.59-9.64-3.19-3.6,1.32-3.38,4.47-3.39,7.41-.02,33.4-.02,66.79-.01,100.19,0,1.65.07,3.31.21,4.95.19,2.11,1.37,3.44,3.37,4.18,5.25,1.95,9.27-.77,9.27-6.36,0-31.39.11-62.78-.07-94.17-.05-8.57,2.43-9.17,9.02-8.93,4.56.17,6.25,1.73,6.25,6.32,0,32.26,0,64.53,0,96.79,0,4.55,2.05,6.76,6.3,6.81,4.48.05,6.68-2.12,6.7-6.72.03-6.1.01-12.21.01-18.31,0-26.07.01-52.14,0-78.22,0-8.08-4.51-13.48-12.13-14.33-2.93-.33-5.93-.01-8.89-.11-3.05-.1-5.69.46-7.01,3.69Z"/><path class="cls-3" d="M286.91,139.8c4.32-1.26,6.62-4.19,6.75-8.35.09-2.87.23-5.77-.05-8.62-.17-1.74-.85-3.56-1.72-5.1-7.6-13.42-15.45-26.7-22.9-40.21-5.97-10.83-4.86-27.99,4.64-37.62,8.15-8.26,18.07-11.23,29.3-8.44,7.17,1.78,11.74,8.57,11.74,16,0,4.97-.01,9.94,0,14.91.02,7.02-5.52,10.17-11.5,9.68-6.81-.56-9.85-5.12-9.53-10.97.22-3.91.07-7.84.04-11.77-.02-2.4-.76-2.8-2.8-1.53-3.31,2.07-3.87,5.33-4.34,8.94-1.03,7.95,2.57,14.21,6.4,20.6,6.06,10.11,11.73,20.45,17.77,30.58,5.93,9.94,5.88,28.41-3.45,38.31-5.45,5.79-11.96,9.5-20.05,9.68-3.49.08-7.17.13-10.46-.84-6.66-1.97-11.1-8.48-11.28-15.61-.13-5.14-.13-10.29,0-15.43.13-4.99,3.44-8.49,8.5-9.35,5.44-.92,10.33,1.47,11.95,6.07.53,1.51.62,3.23.66,4.85.09,3.83.02,7.67.04,11.5,0,.83.16,1.66.27,2.71ZM297.9,42.58c0,6.64-.01,13.16,0,19.68,0,3.99,1.94,5.72,6.31,5.72,4.19,0,6.24-1.92,6.25-5.86.01-5.06.04-10.11,0-15.17-.04-5.51-4.18-10.81-9.57-11.83-6.91-1.32-13.44-.11-19.48,3.62-13.05,8.08-14.75,26.72-8.19,38.19,6.71,11.74,13.15,23.65,20.36,35.08,4.54,7.19,5.01,14.59,3.78,22.45-1.01,6.46-8.22,11.07-14.81,9.57,0-5.78.02-11.61-.01-17.44,0-1.21-.08-2.44-.31-3.63-.61-3.12-3.08-4.49-7.29-4.17-3.05.23-5.24,2.41-5.26,5.35-.04,5.23-.07,10.46,0,15.69.08,5.35,4.28,10.86,9.38,11.79,9.41,1.73,17.58-.73,24.5-7.56,8.53-8.43,8.86-25.38,3.07-34.99-6.35-10.55-12.11-21.46-18.68-31.87-4.18-6.62-5.69-13.42-5.56-21.16.16-9.54,8.07-14.78,15.5-13.46Z"/><path class="cls-3" d="M261.24,273.74c.45.27.52.35.59.36q6.25.57,6.25-5.65c0-3.49-.06-6.98.02-10.46.14-5.82,4.37-9.45,10.84-9.41,6.12.03,10.05,3.66,10.13,9.46.07,5.32.09,10.64,0,15.95-.15,8.35-6.6,15.41-14.93,15.86-6.49.35-13.02.27-19.52,0-6.71-.28-13.4-6.81-14.24-13.51-.31-2.5-.49-5.03-.49-7.54-.03-28.42-.04-56.85-.01-85.27,0-7.55,2.46-13.91,9.74-17.28,2.35-1.09,5.13-1.66,7.73-1.73,6.08-.15,12.23-.29,18.25.4,7.59.87,13.41,7.91,13.45,15.57.09,16.83.1,33.66,0,50.48-.04,7.76-7.13,15.05-14.83,15.5-3.65.21-7.31.26-10.96.34-1.15.02-2.04.08-2.03,1.63.04,8.45.02,16.89.02,25.29ZM257.1,242.69c4.8,0,9.23-.03,13.67,0,9.57.07,14.39-6.8,14.22-14.32-.35-15.77-.06-31.56-.14-47.34-.03-6.31-4.45-11.46-10.71-12.07-5.1-.49-10.27-.34-15.41-.35-9.5-.03-14.68,5.17-14.68,14.66,0,13.69,0,27.38,0,41.07,0,15.96-.03,31.91.01,47.87.02,7.49,3.88,12.67,11.26,13.56,6.08.74,12.34.41,18.49.11,5.92-.29,11.57-6.09,11.14-13.4-.28-4.78-.01-9.59-.08-14.38-.05-3.68-2.2-5.4-6.48-5.35-3.86.04-6.08,2.04-6.1,5.53-.02,4.71.02,9.42-.01,14.12-.02,3.92-2.08,5.97-5.91,5.98-1.57,0-3.14.07-4.71-.02-2.33-.13-4.51-2.06-4.53-4.25-.07-10.36-.03-20.72-.03-31.44Z"/><path class="cls-3" d="M229.48,113.08v26.78c.27.14.41.28.56.29q6.12.32,6.12-5.81c0-3.05.1-6.11-.02-9.16-.32-8.04,6.21-11.77,13.28-10.33,5.17,1.06,7.69,4.3,7.72,9.56.04,5.23.07,10.46.04,15.7-.05,8.12-6.89,15.47-15.02,15.78-6.5.25-13.03.22-19.53,0-6.61-.23-13.53-7.14-14.19-13.88-.28-2.85-.44-5.73-.45-8.6-.03-27.82-.03-55.64-.02-83.46,0-9.8,4.34-16.35,12.61-18.71,1.97-.56,4.11-.72,6.18-.72,5.31,0,10.64-.05,15.93.33,8.21.59,14.66,8.61,14.54,16.55-.25,16.04-.31,32.1.03,48.14.18,8.27-6.83,16.74-15.58,17.01-3.99.12-7.98.35-12.21.54ZM225.17,108.36c5.89,0,11.47.25,17.01-.07,5.91-.34,10.73-5.78,10.75-11.72.05-16.47.06-32.95,0-49.42-.02-6.33-4.33-11.55-10.62-12.1-6.05-.53-12.21-.64-18.26-.18-7.44.57-11.7,5.73-11.88,13.31-.06,2.53-.01,5.06-.01,7.58,0,27.63,0,55.26,0,82.9,0,6.96,4.08,12.26,10.88,13.04,5.85.67,11.84.82,17.71.4,8.49-.61,12.66-7.07,12.26-13.98-.27-4.6-.01-9.24-.07-13.86-.04-3.74-2.1-5.48-6.29-5.47-4.1.01-6.26,1.89-6.29,5.55-.03,3.49-.14,6.98.02,10.46.42,9.08-1.82,10-9.87,9.63-.35-.02-.72.06-1.04-.02-2.25-.59-4.23-1.73-4.26-4.26-.11-10.36-.05-20.72-.05-31.79Z"/><path class="cls-3" d="M135.34,212.97c-1.06-.42-1.74-.79-2.48-.97-4.82-1.18-7.53-4.24-7.62-9.19-.13-7.5-.25-15.01.02-22.5.33-9.1,8.27-15.97,17.44-15.66,4.44.15,8.92.35,13.34-.02,9.04-.76,18.19,5.84,18.22,17.29.07,32.7.05,65.41,0,98.11-.01,6.78-4.55,10.81-11.37,9.9-3.85-.51-7.55-.27-11.38.04-4.63.37-9.47.25-13.99-.71-7.42-1.58-12.3-8.43-12.31-16.08-.02-12.3.01-24.59-.01-36.89-.02-8.48,2.91-15.75,8.78-21.86.36-.37.7-.76,1.37-1.47ZM157.36,282.25c1.88,3.4,4.73,4.69,8.34,3.86,2.89-.67,4.51-2.81,4.52-6.11,0-32.79.02-65.57,0-98.36,0-6.69-4.48-12.12-11.08-12.66-5.97-.49-12.04-.58-18.01-.11-7.58.6-11.71,5.68-11.71,13.28,0,6.89-.01,13.78,0,20.67,0,3.67,2,5.43,6.04,5.45,4.5.01,6.49-1.64,6.51-5.5.03-5.67,0-11.34,0-17,0-8.59,1.05-9.61,9.63-9.41,3.8.09,5.59,1.83,5.61,5.62.04,6.02.01,12.03.01,18.05,0,3.2,0,6.4,0,9.62-2.25.27-4.22.54-6.19.74-11.28,1.14-21.6,12.44-21.62,23.75-.02,13.17-.02,26.33,0,39.5,0,5.89,4.08,11.09,9.88,12.02,3.57.57,7.27.37,10.91.58,3.21.18,5.82-.67,7.15-3.97ZM146.29,180.5c-.05,1.11-.12,1.96-.13,2.8,0,6,.01,12.01-.02,18.01,0,1.78-.15,3.55-.22,5.33,1.83-.16,3.65-.42,5.48-.45,1.55-.02,1.91-.81,1.91-2.14,0-7.31.06-14.62-.02-21.93,0-.55-.89-1.49-1.44-1.55-1.78-.2-3.6-.07-5.55-.07Z"/><path class="cls-3" d="M103.44,78.97c-1.1-.42-1.79-.78-2.53-.94-4.72-1.05-7.56-4.36-7.61-9.19-.07-7.15-.1-14.3,0-21.46.14-9.21,7.14-16.34,16.3-16.6,5.32-.15,10.64.02,15.96-.06,8.78-.13,16.78,6.72,16.82,16.89.13,32.97.07,65.94.02,98.91,0,5.57-3.67,9.26-9.27,9.41-2.2.06-4.41-.54-6.62-.83-.51-.07-1.08-.29-1.51-.13-5.69,2.05-11.57,1.2-17.33.88-7.65-.42-14.28-8.11-14.36-16.33-.12-12.91-.2-25.82.03-38.72.13-7.63,3.11-14.32,8.36-19.93.47-.5.93-1.01,1.73-1.88ZM125.45,148.19c.36.67.58,1.15.86,1.57,1.45,2.17,4.76,3.12,7.74,2.25,2.76-.8,4.23-2.62,4.23-5.51.02-33.04.04-66.08-.01-99.11,0-6.4-4.46-11.86-10.78-12.34-6.65-.51-13.41-.4-20.07.1-5.19.39-9.8,5.81-9.89,10.89-.14,7.76-.12,15.52.02,23.27.02,1.24.69,2.85,1.61,3.62,2.31,1.94,5.15,1.77,7.87.83,2.68-.93,3.1-3.17,3.07-5.69-.06-6.54-.05-13.08,0-19.61.02-4.01,2.14-6.07,6.11-6.09.96,0,1.92,0,2.88,0,4.47,0,6.33,1.78,6.35,6.29.05,8.45.02,16.91.01,25.37,0,.58-.15,1.16-.22,1.64-2.16.26-4.13.49-6.11.74-11.81,1.45-21.56,12.33-21.62,24.27-.06,13.08-.04,26.15,0,39.23.02,5.78,4.39,11.01,10.14,11.79,3.68.5,7.45.41,11.18.56,2.94.12,5.29-.85,6.63-4.06ZM121.47,59.34h-.02c0-3.48-.12-6.97.05-10.44.09-1.9-.55-2.56-2.35-2.34-.6.07-1.23.09-1.82,0-2.54-.41-3.17.66-3.16,3.14.03,7.37-.25,14.74-.31,22.11,0,.35.94,1.03,1.43,1.01,1.37-.06,2.72-.56,4.09-.58,1.61-.01,2.14-.68,2.12-2.2-.05-3.57-.02-7.13-.02-10.7Z"/><path class="cls-3" d="M53,290.16c-1.78,0-3.33.01-4.87,0-7.93-.07-15.85-.17-23.78-.23-6.37-.05-9.53-5.76-8.88-11.36.78-6.66,4.25-9.46,11.04-9.48,1.73,0,3.46,0,5.54,0v-3.28c0-30.07.12-60.14-.07-90.22-.06-9.02,6.56-12.49,14.89-10.41,1.31.33,2.78.03,4.18-.01.24,0,.48-.27.72-.27,5.48,0,11.06-.67,16.4.19,7.78,1.25,12.91,8.36,12.97,16.91.12,15.43.15,30.86,0,46.28-.17,17.29-13.28,28.65-26.53,29.69-1.93.15-1.6,1.47-1.6,2.64,0,8.8,0,17.61,0,26.41,0,.94,0,1.87,0,3.13ZM48.79,254.6c2.9-.35,5.43-.44,7.87-.98,12.18-2.71,20.39-13.03,20.39-25.48,0-15.34,0-30.69,0-46.03,0-7.04-4.18-12.21-11.1-13.18-3.51-.49-7.12-.22-10.69-.35-2.85-.1-5.01.93-6.23,3.64-2.75-3.56-5.45-4.48-9.27-3.28-3.88,1.22-3.57,4.41-3.57,7.47,0,.09,0,.17,0,.26,0,31.21.01,62.42.02,93.63,0,.92,0,1.83,0,2.89-2.14,0-3.88,0-5.62,0-1.83,0-3.66-.06-5.49.02-3.68.16-5.37,2.49-5.67,6.64-.24,3.39,2.41,6.38,5.68,6.37,1.83,0,3.66,0,5.49,0,5.99,0,11.98,0,18.18,0v-31.61Z"/><path class="cls-3" d="M55.62,93.46c0,11.16-.07,22.33.02,33.49.11,15.03-12.5,28.62-27.69,29-4.33.11-8.69.35-12.99-.04-5.48-.49-8.54-4.38-8.55-10.15-.02-13.17-.04-26.34.03-39.51,0-1.79-.25-2.98-2.06-3.93-6.01-3.12-5.69-15.19.11-18.03,1.57-.77,1.97-1.78,1.96-3.46-.07-13.08-.05-26.16-.04-39.25,0-7.31,3.78-11.12,11.06-11.1,6.32.02,12.67-.41,18.79,1.89,11.81,4.45,19.35,15.2,19.36,27.85,0,11.08,0,22.15,0,33.23ZM10.61,100.11c0,1.15,0,2.1,0,3.06,0,14.3,0,28.6,0,42.9,0,3.95,2.07,6.17,6.04,6.15,4.17-.02,8.36-.1,12.51-.49,12.24-1.13,22.25-12.21,22.25-24.47,0-22.41,0-44.82,0-67.23,0-10.32-6.4-19.65-16-23.46-6.62-2.62-13.51-2.11-20.35-1.7-2.94.18-4.44,2.36-4.44,5.41-.01,14.39,0,28.77,0,43.16,0,1.04,0,2.08,0,3.08-5.45,1.24-6.44,2.54-6.28,8.08.1,3.25,1.8,4.79,6.28,5.5Z"/><path class="cls-3" d="M110.55,268.81c1.75.35,3.25.5,4.63.95,3.82,1.26,5.95,4.53,6.09,9.05.17,5.47-1.51,9.37-5.58,10.43-9.65,2.51-22.54.88-25.66-12.5-.21-.92-.4-1.87-.4-2.8-.02-33.31-.03-66.62-.01-99.94,0-5.47,3.61-9.09,9.07-9.3,8.43-.31,11.86,2.97,11.86,11.36,0,29.82,0,59.65,0,89.47,0,1.04,0,2.08,0,3.25ZM106.37,273.18v-3.51c0-31.64,0-63.28,0-94.92,0-4.05-2.05-6.12-6.02-6.16-4.89-.05-6.63,1.59-6.63,6.46-.02,32.6,0,65.2,0,97.79,0,.52,0,1.05.04,1.57.28,5.41,4.45,10.34,9.85,11.25,2.63.45,5.35.53,8.03.5,3.67-.04,5.73-2.55,5.72-6.63-.01-3.82-2.16-6.22-5.75-6.35-1.64-.06-3.28-.01-5.22-.01Z"/><path class="cls-3" d="M63.97,107.93c0-12.46-.1-24.93.09-37.39.04-2.38,1.28-4.72,1.83-7.11.2-.85.16-1.84-.06-2.7-.53-2.06-1.66-4.05-1.77-6.11-.27-4.78-.1-9.58-.08-14.38.02-5.29,3.07-8.81,8.31-9.62,5.57-.86,9.93,1.06,11.85,5.38.48,1.07.74,2.32.76,3.49.08,5.32.17,10.64-.04,15.95-.07,1.71-.77,3.57-1.69,5.03-.8,1.27-.66,1.91-.04,3.17.92,1.87,1.73,4.04,1.73,6.08.11,25.54,0,51.08.13,76.62.03,6.4-5.01,10.88-12.02,9.72-6.78-1.13-9.01-3.95-9.01-10.74,0-12.46,0-24.93,0-37.39ZM68.18,107.92c0,12.81.13,25.63-.08,38.44-.06,3.59,2.57,5.96,6.3,5.91,4.18-.06,6.33-1.94,6.34-5.83.01-25.54,0-51.08,0-76.62,0-3.83-2.26-5.9-6.26-5.96-3.81-.05-6.45,2.56-6.39,5.88.23,12.72.09,25.45.09,38.18ZM68.18,47.27c0,2.7-.04,5.41.01,8.11.05,2.77,1.96,4.67,4.74,4.8.96.04,1.92.04,2.88,0,2.9-.1,4.87-2.01,4.91-4.94.07-5.23.08-10.47-.01-15.7-.06-3.34-2.42-5.03-6.59-4.97-3.73.05-5.87,1.87-5.93,5.1-.04,2.53,0,5.06,0,7.59Z"/><path class="cls-3" d="M259.19,33.14c0-1.39,0-2.85,0-4.31,0-6.54-.03-13.08,0-19.62.03-5.25,4.02-9.26,9.24-9.21,1.97.02,4.05.02,5.89.61,3.55,1.14,5.84,4.65,5.79,8.41-.05,3.81.14,7.69-.44,11.43-1.3,8.32-10.32,15.15-20.5,12.68ZM263.41,29.51c6.18-.35,10.63-3.25,11.86-8.86.91-4.15.78-8.62.43-12.89-.11-1.29-2.37-2.7-3.94-3.46-1.13-.55-2.74-.23-4.12-.09-2.35.25-4.07,1.79-4.14,3.97-.23,7.1-.08,14.21-.08,21.33Z"/><path class="cls-3" d="M257.09,208c0-8.1.03-16.21-.01-24.31-.01-2.53,1.12-4.42,3.51-4.76,2.68-.38,5.53-.41,8.18.08,2.44.46,3.5,2.66,3.51,5.14.02,15.77.04,31.54-.01,47.32-.01,3.46-2.12,5.49-5.56,5.57-7.03.17-10.09.57-9.67-9.17.28-6.61.05-13.24.06-19.87ZM261.41,232.85c1.17,0,2.11,0,3.05,0q3.62,0,3.62-3.71c0-13.67,0-27.34,0-41.02q0-6-6.05-5.42c-.16.01-.3.14-.63.29v49.85Z"/><path class="cls-3" d="M225.17,73.61c0-7.75,0-15.5,0-23.25,0-4.01,1.83-5.74,5.88-5.92,6.93-.32,9.56.82,9.39,9.21-.29,14.27-.08,28.56-.08,42.84,0,4.8-1.78,6.59-6.56,6.6-.87,0-1.74,0-2.61,0-4.32-.02-6.02-1.7-6.02-5.96,0-7.84,0-15.67,0-23.51ZM229.57,48.86v50.02c1.17,0,2.12,0,3.07,0q3.52,0,3.52-3.53c0-13.67,0-27.34,0-41.01q0-6.18-6.58-5.48Z"/><path class="cls-3" d="M157.23,249.08c0,7.67.02,15.35,0,23.02-.02,4.66-1.65,6.28-6.22,6.29-7.98.02-9.02-1.02-9.02-8.94,0-14.22,0-28.43,0-42.65,0-5.11,1.95-7.04,7.1-7.04.87,0,1.75-.03,2.62,0,3.56.13,5.49,1.98,5.51,5.5.05,7.94.02,15.87.02,23.81h.02ZM146.26,274.21c2,0,3.74.15,5.44-.08.6-.08,1.52-1.08,1.53-1.67.09-15.59.09-31.19.03-46.78,0-.56-.65-1.57-1.06-1.61-1.94-.17-3.91-.08-5.93-.08v50.21Z"/><path class="cls-3" d="M125.45,115.11c0,7.5-.12,14.99.04,22.49.11,4.81-2.5,7.39-6.94,6.84-.86-.11-1.74,0-2.61,0-3.53-.03-5.79-2-5.81-5.57-.08-15.78-.08-31.55-.01-47.33.02-3.58,2.38-5.58,6.01-5.74,8.79-.4,9.52,2.19,9.35,9.19-.16,6.71-.04,13.42-.04,20.13ZM121.48,115.39c0-7.67-.05-15.33.04-23,.02-1.78-.41-2.67-2.33-2.4-.6.08-1.23.09-1.83,0-2.53-.39-3.2.66-3.18,3.16.12,14.11.02,28.23.07,42.34.02,5.29-1.05,4.67,4.91,4.79,1.82.04,2.39-.55,2.36-2.41-.11-7.49-.04-14.98-.04-22.48Z"/><path class="cls-3" d="M48.82,246.27c0-.9,0-1.66,0-2.43,0-20.22,0-40.45,0-60.67,0-5.03,1.84-6.83,6.94-6.83.7,0,1.39,0,2.09,0,4.62.02,6.21,1.61,6.22,6.31.02,9.5,0,19,0,28.51,0,7.24-.31,14.49.08,21.7.44,8.13-6.79,14.86-15.34,13.42ZM53.12,180.79v61.27c1.17-.43,2.19-.62,3-1.13,3.21-2.03,4.04-5.2,4.03-8.78-.03-15.23-.02-30.47-.01-45.7q0-6.21-6.23-5.92c-.17,0-.33.1-.79.26Z"/><path class="cls-3" d="M23.65,144.21v-44c4.78-1.18,6.27-2.79,6.29-6.69.03-4.11-1.42-5.74-6.29-6.97v-43.83c7.97-1.81,15.09,4.4,15.11,13.25.04,18.75.01,37.5.01,56.25,0,6.28.06,12.56,0,18.84-.09,8.42-6.5,14.06-15.12,13.14ZM27.87,47.24c-.06,1.15-.18,2.33-.18,3.51,0,9.07.07,18.13-.03,27.2-.03,3.01-.28,5.9,3.17,7.37.51.22.8.9,1.26,1.3.52.46,1.12.84,1.68,1.25.27-.65.77-1.3.78-1.96.07-10.28.09-20.57.08-30.85,0-3.46-3.01-8-6.75-7.81ZM27.71,139.47c.29.2.58.4.87.59,1.37-1.06,2.9-1.97,4.08-3.21,2.07-2.19,1.95-5.02,1.94-7.83-.06-9.4,0-18.8-.05-28.2,0-.65-.48-1.3-.74-1.95-.51.35-1.06.66-1.53,1.07-.98.85-1.78,2.01-2.89,2.57-1.41.71-1.71,1.6-1.7,3.06.06,9.66.02,19.32.02,28.98,0,1.64,0,3.27,0,4.91Z"/><path class="cls-1" d="M55.57,364.86c-.94.13-2.12.04-3.56-.25-1.44-.29-2.22-.97-2.36-2.03l-1.54-11.5-.95-.21-1.91.25c-1.67.22-3.39.52-5.14.9-1.75.38-3.5.68-5.24.91l-3.41.46c-1.38-.1-2.3-.53-2.78-1.29-.48-.76-.78-1.62-.91-2.57-.15-1.12.18-2.23.98-3.34.8-1.1,1.98-1.76,3.52-1.97l13.64-1.83c-.34-2.01-.67-3.77-1.01-5.29-.34-1.52-.61-3.01-.8-4.47l-.35-2.6c.35-.96.97-1.75,1.88-2.39.9-.63,1.86-1.02,2.86-1.15,1.94-.26,3.42.16,4.45,1.24,1.03,1.09,1.65,2.39,1.85,3.9l1.26,9.41c2.73-.42,5.2-.84,7.39-1.25,2.19-.41,4.29-.75,6.3-1.01,1.54-.21,2.89-.06,4.04.44,1.16.5,1.82,1.37,1.98,2.6.12.9-.11,1.88-.68,2.95-.57,1.07-1.33,1.67-2.26,1.8l-15.25,2.04,1.75,13.1c.05.39-.16.83-.64,1.33-.48.49-1.04.91-1.67,1.25-.64.34-1.12.53-1.46.58Z"/><path class="cls-1" d="M112.3,368.29c-2.61.35-5.15.16-7.63-.56-2.48-.72-4.72-1.81-6.72-3.25-2-1.44-3.66-3.14-4.97-5.1-1.32-1.96-2.11-3.98-2.39-6.05-.17-1.29,0-2.64.53-4.05.53-1.41,1.79-2.25,3.8-2.52,1.2-.16,2.25,0,3.13.48.88.48,1.66,1.22,2.34,2.21,1.26,1.26,2.38,2.63,3.36,4.12.98,1.49,2.04,2.9,3.17,4.23.66.37,1.35.66,2.06.88.71.22,1.4.28,2.07.19,1.74-.23,3.12-1.23,4.14-2.99,1.02-1.76,1.78-3.97,2.28-6.63.5-2.66.79-5.52.89-8.58.1-3.06.09-6.05-.03-8.97-.12-2.92-.29-5.46-.51-7.63-.22-2.16-.39-3.69-.51-4.59-.06-.45-.22-.65-.49-.62l-6.92.93c-1,.13-1.93-.3-2.78-1.29-.85-1-1.32-1.86-1.42-2.59-.16-1.18.01-2.21.5-3.1.49-.89,1.34-1.42,2.55-1.58l.5-.07c.94-.13,2.6-.32,4.98-.58,2.38-.26,4.98-.57,7.79-.91,2.81-.35,5.46-.66,7.94-.93,2.48-.27,4.33-.49,5.53-.65,2.48.18,3.83,1.14,4.06,2.88.25,1.85-.29,3.2-1.6,4.06s-2.71,1.39-4.18,1.58c-.87.12-1.73.18-2.58.17-.85,0-1.68.03-2.49.08l-.36.39c.13,1.01.28,2.37.45,4.09.16,1.72.35,3.53.57,5.44.22,1.91.4,3.62.54,5.14.14,1.52.24,2.56.32,3.12.11,2.38.13,4.95.06,7.73-.07,2.77-.38,5.56-.92,8.37s-1.47,5.42-2.78,7.85c-1.31,2.43-3.11,4.46-5.41,6.11-2.3,1.65-5.26,2.71-8.87,3.2Z"/><path class="cls-1" d="M174.69,362.08c-3.08.41-6.03.21-8.86-.61-2.83-.82-5.29-2.1-7.36-3.84-2.07-1.74-3.54-3.84-4.42-6.29l-.57-4.28c-.42-3.13-.17-6.39.74-9.76.91-3.37,2.42-6.58,4.53-9.62,2.11-3.05,4.76-5.62,7.95-7.73,3.19-2.11,6.82-3.43,10.91-3.98,1.67-.22,3.16-.17,4.47.17,1.3.34,2.51.7,3.62,1.1,1.11.39,2.17.58,3.19.56.23-2.37.76-3.99,1.6-4.87.83-.88,2.06-1.43,3.66-1.64,1.94-.26,3.33.08,4.17,1.02.84.94,1.37,2.2,1.58,3.76.41,3.08.73,6.11.96,9.1.23,2.99.56,6.05.97,9.19.33,2.46.84,4.99,1.52,7.57.69,2.59,1.19,5.11,1.52,7.57l.24,1.76c.16,1.23.03,2.4-.4,3.52-.43,1.11-1.62,1.8-3.55,2.06-1.81.24-3.16-.05-4.05-.87-.89-.82-1.54-1.87-1.95-3.16-.41-1.28-.79-2.44-1.13-3.48l-.44-.28c-2.02,2.21-3.81,4.22-5.37,6.02-1.56,1.81-3.35,3.31-5.37,4.52-2.02,1.21-4.73,2.04-8.14,2.5ZM172.55,353.73c2.34-.31,4.49-1.21,6.43-2.7,1.95-1.49,3.63-3.31,5.04-5.46,1.41-2.16,2.45-4.36,3.1-6.61.65-2.25.85-4.3.61-6.15-.19-1.4-.61-2.78-1.27-4.15-.66-1.36-1.61-2.48-2.85-3.34-1.24-.86-2.86-1.16-4.87-.89-2.21.3-4.28,1.23-6.21,2.8-1.93,1.57-3.61,3.46-5.01,5.67-1.41,2.21-2.47,4.46-3.18,6.75-.71,2.29-.96,4.3-.72,6.04.19,1.4.63,2.77,1.31,4.1.69,1.33,1.66,2.38,2.93,3.16,1.26.77,2.83,1.03,4.7.78Z"/><path class="cls-1" d="M230.03,355.1c-3.44-.28-6.4-1.15-8.88-2.62-2.48-1.46-4.43-3.32-5.85-5.59-1.43-2.26-2.31-4.7-2.67-7.34-.49-3.64-.02-7.28,1.4-10.91,1.42-3.64,3.54-7,6.36-10.08s6.15-5.68,9.99-7.79c3.84-2.11,7.93-3.45,12.28-4.04,1.54-.21,3.05-.22,4.54-.05,1.49.17,2.97.19,4.45.05l.26-1.15c-.07-1.02-.14-2.29-.21-3.82s-.1-3.13-.08-4.82c.01-1.68.07-3.3.17-4.85.1-1.55.29-2.8.57-3.75.36-1.36.98-2.57,1.86-3.63.88-1.06,2.15-1.7,3.83-1.92s2.82.08,3.44.91c.62.83,1.02,1.91,1.2,3.26l.28,2.1c-.08,6.56.05,13,.39,19.31.33,6.31.92,12.57,1.75,18.79.38,2.86.92,5.62,1.62,8.29.7,2.67,1.24,5.49,1.64,8.46.14,1.06.1,2.14-.13,3.22-.23,1.09-1.18,1.74-2.85,1.96s-3.13,0-4.18-.68c-1.05-.69-1.85-1.62-2.42-2.8-.57-1.18-1.06-2.31-1.48-3.39-.25-.82-.44-1.22-.57-1.21l-.4.05c-3.05,3.66-6.28,6.65-9.68,8.99-3.4,2.34-7.47,3.82-12.22,4.46l-4.42.59ZM232.7,346.03c2.61-.35,5.04-1.27,7.29-2.77,2.25-1.5,4.2-3.33,5.85-5.48,1.65-2.16,2.88-4.42,3.69-6.78.81-2.36,1.08-4.55.81-6.56-.07-.5-.3-1.24-.7-2.21-.4-.97-.88-1.99-1.43-3.06-.55-1.07-1.1-1.95-1.63-2.64-.54-.7-.97-1.02-1.3-.98-3.21.43-6.18,1.38-8.91,2.86-2.73,1.48-5.09,3.29-7.09,5.44-1.99,2.15-3.48,4.48-4.47,7.01-.99,2.53-1.31,5.08-.97,7.65l.45,3.36c.75,1.55,1.82,2.7,3.22,3.46,1.39.75,3.13.99,5.2.71Z"/><path class="cls-1" d="M308.89,344.55c-4.82.64-9.33.61-13.55-.11-4.22-.72-7.75-2.3-10.59-4.74-2.85-2.44-4.56-5.87-5.16-10.29-.45-3.36-.24-6.72.64-10.09.88-3.37,2.38-6.52,4.51-9.45s4.83-5.4,8.1-7.41c3.27-2,7.08-3.3,11.43-3.88,2.94-.39,5.77-.27,8.47.36,2.7.64,4.97,1.79,6.79,3.45,1.82,1.67,2.91,3.84,3.27,6.53.34,2.58.04,5.12-.92,7.64-.96,2.52-2.42,4.85-4.37,7-1.96,2.14-4.26,3.92-6.9,5.32-2.64,1.41-5.46,2.31-8.47,2.72-.47.06-1.52.1-3.15.12-1.63.02-2.93-.02-3.9-.12-.68-.02-1.25-.17-1.7-.46-.14-.04-.39-.1-.74-.2-.35-.09-.6-.13-.73-.12.68,1.56,1.85,2.79,3.51,3.68,1.65.89,3.5,1.46,5.54,1.7,2.04.24,3.96.24,5.77,0,1.27-.17,2.55-.41,3.84-.73,1.28-.31,2.66-.57,4.13-.77s2.79-.03,3.95.5c1.16.53,1.84,1.55,2.04,3.06.16,1.23-.16,2.24-.97,3.04s-1.89,1.39-3.23,1.8c-1.34.41-2.7.72-4.06.93-1.37.21-2.55.38-3.56.52ZM300.85,321.87c2.01-.27,3.95-.86,5.84-1.77,1.89-.91,3.4-2.09,4.53-3.55,1.13-1.46,1.57-3.14,1.32-5.05-.22-1.62-.98-2.83-2.27-3.63-1.3-.79-2.92-1.06-4.86-.8-1.74.23-3.53.87-5.36,1.91-1.84,1.04-3.52,2.3-5.06,3.75-1.54,1.46-2.75,2.98-3.63,4.55-.88,1.57-1.23,3.03-1.05,4.37l.04.34c1.77,0,3.54.03,5.32.1,1.78.08,3.51,0,5.18-.22Z"/><g class="cls-6"><use transform="translate(-725.06 339.44) scale(.55)" xlink:href="#image"/></g></svg>